<svg width="113" height="113" viewBox="0 0 113 113" fill="none" xmlns="http://www.w3.org/2000/svg">
<g clip-path="url(#clip0)">
<path fill-rule="evenodd" clip-rule="evenodd" d="M112.196 56.097C112.196 87.0791 87.0801 112.195 56.098 112.195C25.1159 112.195 0 87.0791 0 56.097C0 25.115 25.1159 -0.000976562 56.098 -0.000976562C87.0801 -0.000976562 112.196 25.115 112.196 56.097ZM89.6161 83.739V60.611C89.6161 48.226 83.0021 42.462 74.1801 42.462C67.0551 42.462 63.8771 46.382 62.0951 49.124V43.409H48.6841C48.8641 47.192 48.6841 83.738 48.6841 83.738H62.0941V61.214C62.0941 60.005 62.1851 58.808 62.5381 57.946C63.5101 55.534 65.7111 53.043 69.4161 53.043C74.2711 53.043 76.2071 56.743 76.2071 62.161V83.739H89.6161ZM62.0951 49.124V49.256H62.0061C62.0189 49.2332 62.0356 49.21 62.0525 49.1866C62.0674 49.166 62.0825 49.1451 62.0951 49.124ZM27.0681 30.936C27.0681 26.98 30.0691 23.969 34.6561 23.969C39.2441 23.969 42.0631 26.98 42.1521 30.936C42.1521 34.808 39.2441 37.906 34.5671 37.906H34.4801C29.9821 37.906 27.0681 34.808 27.0681 30.936ZM41.2701 83.739H27.8651V43.409H41.2701V83.739Z" fill="#007AB9"/>
</g>
<defs>
<clipPath id="clip0">
<rect width="112.196" height="112.196" fill="white"/>
</clipPath>
</defs>
</svg>
