<svg width="96" height="96" viewBox="0 0 96 96" fill="none" xmlns="http://www.w3.org/2000/svg">
<circle cx="48" cy="48" r="48" fill="#00FFB6"/>
<path d="M66.1353 65.344C66.3913 65.6853 66.6046 66.112 66.7753 66.624C66.9459 67.0933 67.0312 67.5413 67.0312 67.968C67.0312 69.12 66.5833 70.08 65.6873 70.848C64.8339 71.616 63.8313 72 62.6793 72C62.1246 72 61.5913 71.872 61.0793 71.616C60.5673 71.36 60.1406 70.9973 59.7993 70.528L45.9113 52.224L39.8313 58.048V68.096C39.8313 69.248 39.4473 70.1867 38.6793 70.912C37.9539 71.6373 36.9939 72 35.7993 72C34.6473 72 33.6873 71.6373 32.9193 70.912C32.1939 70.144 31.8313 69.2053 31.8313 68.096V31.104C31.8313 29.9947 32.2153 29.0773 32.9833 28.352C33.7513 27.584 34.7326 27.2 35.9273 27.2C37.0793 27.2 38.0179 27.5627 38.7433 28.288C39.4686 29.0133 39.8313 29.952 39.8313 31.104V48.512L60.3113 28.352C61.2926 27.3707 62.3379 26.88 63.4473 26.88C64.4286 26.88 65.2606 27.2853 65.9433 28.096C66.6259 28.9067 66.9673 29.76 66.9673 30.656C66.9673 31.552 66.5833 32.384 65.8153 33.152L51.8633 46.464L66.1353 65.344Z" fill="#0C1A2C"/>
</svg>
